<svg aria-hidden="true" style="position: absolute; width: 0; height: 0; overflow: hidden;" version="1.1" xmlns="http://www.w3.org/2000/svg" xmlns:xlink="http://www.w3.org/1999/xlink">
<defs>
<symbol id="icon-chevron-small-right" viewBox="0 0 40 40">
<path d="M22 20l-6.282-6.84c-0.536-0.54-0.536-1.414 0-1.956 0.536-0.54 1.402-0.54 1.938 0l7.66 7.816c0.536 0.542 0.536 1.418 0 1.958l-7.66 7.816c-0.534 0.544-1.402 0.54-1.938 0-0.536-0.538-0.536-1.414 0-1.956l6.282-6.838z"></path>
</symbol>
<symbol id="icon-chevron-thin-left" viewBox="0 0 40 40">
<path d="M27.782 34.836c0.536 0.544 0.536 1.418 0 1.958s-1.402 0.542-1.938 0l-15.66-15.816c-0.536-0.54-0.536-1.414 0-1.958l15.66-15.816c0.536-0.54 1.402-0.54 1.938 0 0.536 0.542 0.536 1.418 0 1.958l-14.282 14.838 14.282 14.836z"></path>
</symbol>
<symbol id="icon-chevron-thin-right" viewBox="0 0 40 40">
<path d="M26.5 20l-14.282-14.84c-0.536-0.54-0.536-1.414 0-1.958 0.536-0.54 1.402-0.54 1.938 0l15.66 15.816c0.536 0.542 0.536 1.418 0 1.958l-15.66 15.816c-0.536 0.542-1.402 0.54-1.938 0-0.536-0.538-0.536-1.414 0-1.958l14.282-14.834z"></path>
</symbol>
<symbol id="icon-controller-record" viewBox="0 0 40 40">
<path d="M20 6c-7.732 0-14 6.266-14 14 0 7.73 6.268 14 14 14s14-6.27 14-14c0-7.734-6.268-14-14-14z"></path>
</symbol>
<symbol id="icon-air" viewBox="0 0 40 40">
<path d="M5.286 12.714c3.494-3 6.254-5.372 13.744-1.14 3.598 2.032 6.5 2.8 8.914 2.796 4.23 0 6.972-2.352 9.342-4.386 0.846-0.726 0.954-2.016 0.244-2.878-0.714-0.864-1.974-0.976-2.82-0.25-3.492 3.004-6.254 5.376-13.744 1.14-9.896-5.586-14.532-1.606-18.256 1.594-0.844 0.726-0.952 2.012-0.242 2.878 0.712 0.86 1.972 0.974 2.818 0.246zM34.71 17.070c-3.492 3-6.254 5.376-13.744 1.14-9.896-5.59-14.532-1.608-18.256 1.59-0.844 0.726-0.954 2.016-0.242 2.878 0.71 0.864 1.972 0.976 2.818 0.25 3.494-3.002 6.254-5.374 13.744-1.144 3.598 2.036 6.5 2.8 8.914 2.8 4.23 0 6.972-2.352 9.342-4.39 0.846-0.726 0.954-2.016 0.244-2.876-0.712-0.866-1.974-0.974-2.82-0.248zM34.71 27.282c-3.492 3.004-6.254 5.376-13.744 1.144-9.896-5.59-14.532-1.61-18.256 1.59-0.844 0.726-0.954 2.016-0.242 2.878 0.71 0.864 1.972 0.972 2.818 0.246 3.494-3 6.254-5.37 13.744-1.14 3.598 2.032 6.5 2.8 8.914 2.8 4.23 0 6.972-2.356 9.342-4.39 0.846-0.726 0.954-2.016 0.244-2.878-0.712-0.864-1.974-0.974-2.82-0.25z"></path>
</symbol>
<symbol id="icon-bar-graph" viewBox="0 0 40 40">
<path d="M34 2h-4c-1.104 0-2 0.894-2 2v33.984h8v-33.984c0-1.106-0.894-2-2-2zM22 14h-4c-1.104 0-2 0.894-2 2v21.984h8v-21.984c0-1.106-0.894-2-2-2zM10 26h-4c-1.104 0-2 0.894-2 2v9.984h8v-9.984c0-1.106-0.894-2-2-2z"></path>
</symbol>
<symbol id="icon-circle" viewBox="0 0 40 40">
<path d="M20 0.8c-10.604 0-19.2 8.596-19.2 19.2s8.596 19.2 19.2 19.2c10.602 0 19.2-8.596 19.2-19.202 0-10.602-8.598-19.198-19.2-19.198zM20 35.198c-8.394 0-15.2-6.804-15.2-15.2s6.804-15.198 15.2-15.198c8.394 0 15.202 6.804 15.202 15.2s-6.808 15.198-15.202 15.198z"></path>
</symbol>
<symbol id="icon-leaf" viewBox="0 0 40 40">
<path d="M38.050 7.174c-8.712 5.112-8.088 15.612-14.192 20.35-4.594 3.566-11.076 1.76-14.824 0.226 0 0-2.54 3.206-4.362 7.48-0.61 1.434-3.288-0.146-2.818-1.36 5.956-15.37 26.22-23.038 26.22-23.038s-14.298-0.606-23.854 11.88c-0.256-2.852-0.68-10.568 6.72-15.3 10.032-6.422 29.144-1.43 27.11-0.238z"></path>
</symbol>
<symbol id="icon-magnifying-glass" viewBox="0 0 40 40">
<path d="M35.090 30.934l-7.558-7.558c1.14-1.87 1.796-4.070 1.796-6.42 0-6.834-5.922-12.754-12.756-12.754-6.834-0.002-12.372 5.538-12.372 12.372 0 6.832 5.922 12.754 12.754 12.754 2.274 0 4.4-0.618 6.23-1.688l7.598 7.602c0.744 0.742 1.95 0.742 2.692 0l1.886-1.886c0.742-0.742 0.472-1.68-0.27-2.422zM8.008 16.574c0-4.732 3.834-8.566 8.564-8.566 4.732 0 8.948 4.214 8.948 8.948 0 4.73-3.836 8.566-8.566 8.566-4.732-0.002-8.946-4.218-8.946-8.948z"></path>
</symbol>
<symbol id="icon-new" viewBox="0 0 40 40">
<path d="M37.38 24.688l-3.454-3.076c-1-0.89-1-2.348 0-3.238l3.454-3.078c1-0.89 0.734-1.718-0.592-1.848l-4.58-0.434c-1.324-0.124-2.040-1.266-1.582-2.532l2.43-6.766c0.456-1.27-0.102-1.73-1.238-1.028l-5.402 3.34c-1.136 0.708-2.606 0.32-3.262-0.852l-1.956-3.492c-0.658-1.176-1.744-1.18-2.414-0.016l-1.818 3.16c-0.674 1.17-2.216 1.666-3.426 1.112l-3.2-1.468c-1.216-0.56-2.146 0.084-2.074 1.432l0.172 3.23c0.074 1.348-0.922 2.734-2.208 3.082l-3.090 0.828c-1.284 0.348-1.52 1.36-0.52 2.25l3.454 3.078c1 0.89 1 2.348 0 3.238l-3.454 3.078c-1 0.89-0.736 1.754 0.586 1.914l4.19 0.508c1.322 0.16 2.058 1.34 1.636 2.622l-2.148 6.516c-0.422 1.282 0.18 1.778 1.336 1.11l4.926-2.852c1.156-0.668 2.712-0.3 3.458 0.816l2.044 3.078c0.744 1.118 1.862 1.058 2.48-0.136l1.798-3.466c0.62-1.196 2.104-1.684 3.296-1.086l3.468 1.734c1.196 0.594 2.114-0.020 2.042-1.364l-0.174-3.234c-0.070-1.348 0.922-2.73 2.212-3.078l3.086-0.832c1.288-0.348 1.524-1.36 0.524-2.25zM22 28h-4v-4h4v4zM22 22h-4v-10h4v10z"></path>
</symbol>
<symbol id="icon-shield" viewBox="0 0 40 40">
<path d="M35.208 6.664c-9.228 1.336-11.058-0.998-15.208-4.664-4.15 3.666-5.98 6-15.208 4.664-4.918 24.496 15.208 31.336 15.208 31.336s20.126-6.84 15.208-31.336zM24.946 26.618l-4.946-2.6-4.944 2.6 0.944-5.506-4-3.9 5.528-0.802 2.472-5.010 2.472 5.010 5.528 0.802-4 3.898 0.946 5.508z"></path>
</symbol>
<symbol id="icon-water" viewBox="0 0 40 40">
<path d="M19.764 18.186c-1.022 8.23-6.242 9.694-6.242 15.416 0 3.532 2.966 6.398 6.478 6.398s6.476-2.868 6.476-6.398c0-5.722-5.22-7.186-6.242-15.416-0.032-0.246-0.438-0.246-0.47 0zM7.766 0.186c-1.022 8.23-6.242 9.692-6.242 15.416 0 3.53 2.964 6.398 6.476 6.398s6.476-2.868 6.476-6.398c0-5.722-5.22-7.186-6.242-15.416-0.030-0.246-0.438-0.246-0.468 0zM31.766 0.186c-1.022 8.23-6.242 9.694-6.242 15.416 0 3.53 2.964 6.398 6.476 6.398s6.476-2.868 6.476-6.398c0-5.722-5.22-7.186-6.242-15.416-0.032-0.246-0.438-0.246-0.468 0z"></path>
</symbol>
<symbol id="icon-heart" viewBox="0 0 32 32">
<path d="M23.6 2c-3.363 0-6.258 2.736-7.599 5.594-1.342-2.858-4.237-5.594-7.601-5.594-4.637 0-8.4 3.764-8.4 8.401 0 9.433 9.516 11.906 16.001 21.232 6.13-9.268 15.999-12.1 15.999-21.232 0-4.637-3.763-8.401-8.4-8.401z"></path>
</symbol>
<symbol id="icon-arrow-up2" viewBox="0 0 32 32">
<path d="M27.414 12.586l-10-10c-0.781-0.781-2.047-0.781-2.828 0l-10 10c-0.781 0.781-0.781 2.047 0 2.828s2.047 0.781 2.828 0l6.586-6.586v19.172c0 1.105 0.895 2 2 2s2-0.895 2-2v-19.172l6.586 6.586c0.39 0.39 0.902 0.586 1.414 0.586s1.024-0.195 1.414-0.586c0.781-0.781 0.781-2.047 0-2.828z"></path>
</symbol>
</defs>
</svg>
