<!-- Generated by IcoMoon.io -->
<svg version="1.1" xmlns="http://www.w3.org/2000/svg" width="40" height="40" viewBox="0 0 40 40">
<title>air</title>
<path d="M5.286 12.714c3.494-3 6.254-5.372 13.744-1.14 3.598 2.032 6.5 2.8 8.914 2.796 4.23 0 6.972-2.352 9.342-4.386 0.846-0.726 0.954-2.016 0.244-2.878-0.714-0.864-1.974-0.976-2.82-0.25-3.492 3.004-6.254 5.376-13.744 1.14-9.896-5.586-14.532-1.606-18.256 1.594-0.844 0.726-0.952 2.012-0.242 2.878 0.712 0.86 1.972 0.974 2.818 0.246zM34.71 17.070c-3.492 3-6.254 5.376-13.744 1.14-9.896-5.59-14.532-1.608-18.256 1.59-0.844 0.726-0.954 2.016-0.242 2.878 0.71 0.864 1.972 0.976 2.818 0.25 3.494-3.002 6.254-5.374 13.744-1.144 3.598 2.036 6.5 2.8 8.914 2.8 4.23 0 6.972-2.352 9.342-4.39 0.846-0.726 0.954-2.016 0.244-2.876-0.712-0.866-1.974-0.974-2.82-0.248zM34.71 27.282c-3.492 3.004-6.254 5.376-13.744 1.144-9.896-5.59-14.532-1.61-18.256 1.59-0.844 0.726-0.954 2.016-0.242 2.878 0.71 0.864 1.972 0.972 2.818 0.246 3.494-3 6.254-5.37 13.744-1.14 3.598 2.032 6.5 2.8 8.914 2.8 4.23 0 6.972-2.356 9.342-4.39 0.846-0.726 0.954-2.016 0.244-2.878-0.712-0.864-1.974-0.974-2.82-0.25z"></path>
</svg>
